<svg width="27" height="27" viewBox="0 0 27 27" fill="none" xmlns="http://www.w3.org/2000/svg">
<path fill-rule="evenodd" clip-rule="evenodd" d="M14.3277 26.1059C16.5769 26.1059 18.4067 24.2761 18.4067 22.0269V19.9873C18.4067 19.4241 17.9502 18.9676 17.3869 18.9676C16.8237 18.9676 16.3672 19.4241 16.3672 19.9873V22.0269C16.3672 23.1514 15.4522 24.0664 14.3277 24.0664H4.07905C2.95452 24.0664 2.03952 23.1514 2.03952 22.0269V4.07905C2.03952 2.95452 2.95452 2.03952 4.07905 2.03952H14.3277C15.4522 2.03952 16.3672 2.95452 16.3672 4.07905V6.11857C16.3672 6.68183 16.8237 7.13833 17.3869 7.13833C17.9502 7.13833 18.4067 6.68183 18.4067 6.11857V4.07905C18.4067 1.8298 16.5769 0 14.3277 0H4.07905C1.8298 0 0 1.8298 0 4.07905V22.0269C0 24.2761 1.8298 26.1059 4.07905 26.1059H14.3277ZM21.6335 9.01772C22.0316 8.61938 22.6774 8.61938 23.0757 9.01772L25.3592 11.3012C26.3533 12.2953 26.3533 13.9126 25.3592 14.9066L23.0757 17.1902C22.8765 17.3893 22.6156 17.4889 22.3545 17.4889C22.0936 17.4889 21.8327 17.3893 21.6335 17.1902C21.2352 16.792 21.2352 16.1463 21.6335 15.7482L23.2577 14.1237H11.0134C10.4502 14.1237 9.99367 13.6672 9.99367 13.1039C9.99367 12.5407 10.4502 12.0842 11.0134 12.0842H23.2577L21.6335 10.4597C21.2352 10.0616 21.2352 9.41587 21.6335 9.01772Z" fill="white"/>
</svg>
