<svg width="23" height="27" viewBox="0 0 23 27" fill="none" xmlns="http://www.w3.org/2000/svg">
<path fill-rule="evenodd" clip-rule="evenodd" d="M11.4445 13.7334C7.65816 13.7334 4.57776 10.653 4.57776 6.86669C4.57776 3.08039 7.65816 -7.62939e-06 11.4445 -7.62939e-06C15.2308 -7.62939e-06 18.3112 3.08039 18.3112 6.86669C18.3112 10.653 15.2308 13.7334 11.4445 13.7334ZM11.4445 1.52592C8.49956 1.52592 6.10369 3.92179 6.10369 6.86669C6.10369 9.81159 8.49956 12.2075 11.4445 12.2075C14.3894 12.2075 16.7852 9.81159 16.7852 6.86669C16.7852 3.92179 14.3894 1.52592 11.4445 1.52592Z" fill="white"/>
<path fill-rule="evenodd" clip-rule="evenodd" d="M9.91856 15.2593H12.9704C15.6158 15.2593 18.108 16.3105 19.988 18.2194C21.8587 20.1189 22.889 22.6262 22.889 25.2796C22.889 25.701 22.5474 26.0426 22.126 26.0426H0.762966C0.341605 26.0426 0 25.701 0 25.2796C0 22.6262 1.03026 20.1189 2.901 18.2194C4.78095 16.3105 7.27321 15.2593 9.91856 15.2593ZM12.9704 16.7853H9.91856C5.54478 16.7853 1.94175 20.1888 1.5595 24.5166H21.3295C20.9472 20.1888 17.3442 16.7853 12.9704 16.7853Z" fill="white"/>
</svg>
